<mxfile host="65bd71144e">
    <diagram id="xip3BwT3qzjirYDVqB7z" name="Page-1">
        <mxGraphModel dx="1115" dy="650" grid="1" gridSize="10" guides="1" tooltips="1" connect="1" arrows="1" fold="1" page="1" pageScale="1" pageWidth="850" pageHeight="1100" math="0" shadow="0">
            <root>
                <mxCell id="0"/>
                <mxCell id="1" parent="0"/>
                <mxCell id="2" value="API ROUTES" style="shape=table;startSize=30;container=1;collapsible=0;childLayout=tableLayout;fontStyle=1;align=center;" vertex="1" parent="1">
                    <mxGeometry x="100" y="80" width="670" height="360" as="geometry"/>
                </mxCell>
                <mxCell id="3" value="" style="shape=tableRow;horizontal=0;startSize=0;swimlaneHead=0;swimlaneBody=0;top=0;left=0;bottom=0;right=0;collapsible=0;dropTarget=0;fillColor=none;points=[[0,0.5],[1,0.5]];portConstraint=eastwest;" vertex="1" parent="2">
                    <mxGeometry y="30" width="670" height="111" as="geometry"/>
                </mxCell>
                <mxCell id="4" value="/users" style="shape=partialRectangle;html=1;whiteSpace=wrap;connectable=0;fillColor=none;top=0;left=0;bottom=0;right=0;overflow=hidden;" vertex="1" parent="3">
                    <mxGeometry width="224" height="111" as="geometry">
                        <mxRectangle width="224" height="111" as="alternateBounds"/>
                    </mxGeometry>
                </mxCell>
                <mxCell id="5" value="POST" style="shape=partialRectangle;html=1;whiteSpace=wrap;connectable=0;fillColor=none;top=0;left=0;bottom=0;right=0;overflow=hidden;" vertex="1" parent="3">
                    <mxGeometry x="224" width="222" height="111" as="geometry">
                        <mxRectangle width="222" height="111" as="alternateBounds"/>
                    </mxGeometry>
                </mxCell>
                <mxCell id="6" value="Create new user profile" style="shape=partialRectangle;html=1;whiteSpace=wrap;connectable=0;fillColor=none;top=0;left=0;bottom=0;right=0;overflow=hidden;" vertex="1" parent="3">
                    <mxGeometry x="446" width="224" height="111" as="geometry">
                        <mxRectangle width="224" height="111" as="alternateBounds"/>
                    </mxGeometry>
                </mxCell>
                <mxCell id="7" value="" style="shape=tableRow;horizontal=0;startSize=0;swimlaneHead=0;swimlaneBody=0;top=0;left=0;bottom=0;right=0;collapsible=0;dropTarget=0;fillColor=none;points=[[0,0.5],[1,0.5]];portConstraint=eastwest;" vertex="1" parent="2">
                    <mxGeometry y="141" width="670" height="108" as="geometry"/>
                </mxCell>
                <mxCell id="8" value="/sessions/&amp;lt;int: user_id&amp;gt;" style="shape=partialRectangle;html=1;whiteSpace=wrap;connectable=0;fillColor=none;top=0;left=0;bottom=0;right=0;overflow=hidden;" vertex="1" parent="7">
                    <mxGeometry width="224" height="108" as="geometry">
                        <mxRectangle width="224" height="108" as="alternateBounds"/>
                    </mxGeometry>
                </mxCell>
                <mxCell id="9" value="GET, POST, PATCH" style="shape=partialRectangle;html=1;whiteSpace=wrap;connectable=0;fillColor=none;top=0;left=0;bottom=0;right=0;overflow=hidden;" vertex="1" parent="7">
                    <mxGeometry x="224" width="222" height="108" as="geometry">
                        <mxRectangle width="222" height="108" as="alternateBounds"/>
                    </mxGeometry>
                </mxCell>
                <mxCell id="10" value="Get all session data by user, create new sessions, edit session data (journal entry)" style="shape=partialRectangle;html=1;whiteSpace=wrap;connectable=0;fillColor=none;top=0;left=0;bottom=0;right=0;overflow=hidden;" vertex="1" parent="7">
                    <mxGeometry x="446" width="224" height="108" as="geometry">
                        <mxRectangle width="224" height="108" as="alternateBounds"/>
                    </mxGeometry>
                </mxCell>
                <mxCell id="11" value="" style="shape=tableRow;horizontal=0;startSize=0;swimlaneHead=0;swimlaneBody=0;top=0;left=0;bottom=0;right=0;collapsible=0;dropTarget=0;fillColor=none;points=[[0,0.5],[1,0.5]];portConstraint=eastwest;" vertex="1" parent="2">
                    <mxGeometry y="249" width="670" height="111" as="geometry"/>
                </mxCell>
                <mxCell id="12" value="/meditations" style="shape=partialRectangle;html=1;whiteSpace=wrap;connectable=0;fillColor=none;top=0;left=0;bottom=0;right=0;overflow=hidden;" vertex="1" parent="11">
                    <mxGeometry width="224" height="111" as="geometry">
                        <mxRectangle width="224" height="111" as="alternateBounds"/>
                    </mxGeometry>
                </mxCell>
                <mxCell id="13" value="GET" style="shape=partialRectangle;html=1;whiteSpace=wrap;connectable=0;fillColor=none;top=0;left=0;bottom=0;right=0;overflow=hidden;" vertex="1" parent="11">
                    <mxGeometry x="224" width="222" height="111" as="geometry">
                        <mxRectangle width="222" height="111" as="alternateBounds"/>
                    </mxGeometry>
                </mxCell>
                <mxCell id="14" value="Get all meditations" style="shape=partialRectangle;html=1;whiteSpace=wrap;connectable=0;fillColor=none;top=0;left=0;bottom=0;right=0;overflow=hidden;" vertex="1" parent="11">
                    <mxGeometry x="446" width="224" height="111" as="geometry">
                        <mxRectangle width="224" height="111" as="alternateBounds"/>
                    </mxGeometry>
                </mxCell>
                <mxCell id="42" value="" style="childLayout=tableLayout;recursiveResize=0;shadow=0;fillColor=none;" vertex="1" parent="1">
                    <mxGeometry x="100" y="440" width="670" height="360" as="geometry"/>
                </mxCell>
                <mxCell id="43" value="" style="shape=tableRow;horizontal=0;startSize=0;swimlaneHead=0;swimlaneBody=0;top=0;left=0;bottom=0;right=0;dropTarget=0;collapsible=0;recursiveResize=0;expand=0;fontStyle=0;fillColor=none;strokeColor=inherit;" vertex="1" parent="42">
                    <mxGeometry width="670" height="121" as="geometry"/>
                </mxCell>
                <mxCell id="44" value="/meditations/&amp;lt;int: id&amp;gt;" style="connectable=0;recursiveResize=0;strokeColor=inherit;fillColor=none;align=center;whiteSpace=wrap;html=1;" vertex="1" parent="43">
                    <mxGeometry width="224" height="121" as="geometry">
                        <mxRectangle width="224" height="121" as="alternateBounds"/>
                    </mxGeometry>
                </mxCell>
                <mxCell id="45" value="GET" style="connectable=0;recursiveResize=0;strokeColor=inherit;fillColor=none;align=center;whiteSpace=wrap;html=1;" vertex="1" parent="43">
                    <mxGeometry x="224" width="222" height="121" as="geometry">
                        <mxRectangle width="222" height="121" as="alternateBounds"/>
                    </mxGeometry>
                </mxCell>
                <mxCell id="46" value="Get specific meditatation" style="connectable=0;recursiveResize=0;strokeColor=inherit;fillColor=none;align=center;whiteSpace=wrap;html=1;" vertex="1" parent="43">
                    <mxGeometry x="446" width="224" height="121" as="geometry">
                        <mxRectangle width="224" height="121" as="alternateBounds"/>
                    </mxGeometry>
                </mxCell>
                <mxCell id="47" style="shape=tableRow;horizontal=0;startSize=0;swimlaneHead=0;swimlaneBody=0;top=0;left=0;bottom=0;right=0;dropTarget=0;collapsible=0;recursiveResize=0;expand=0;fontStyle=0;fillColor=none;strokeColor=inherit;" vertex="1" parent="42">
                    <mxGeometry y="121" width="670" height="118" as="geometry"/>
                </mxCell>
                <mxCell id="48" value="/users/&amp;lt;int: id&amp;gt;" style="connectable=0;recursiveResize=0;strokeColor=inherit;fillColor=none;align=center;whiteSpace=wrap;html=1;" vertex="1" parent="47">
                    <mxGeometry width="224" height="118" as="geometry">
                        <mxRectangle width="224" height="118" as="alternateBounds"/>
                    </mxGeometry>
                </mxCell>
                <mxCell id="49" value="GET, PATCH, DELETE" style="connectable=0;recursiveResize=0;strokeColor=inherit;fillColor=none;align=center;whiteSpace=wrap;html=1;" vertex="1" parent="47">
                    <mxGeometry x="224" width="222" height="118" as="geometry">
                        <mxRectangle width="222" height="118" as="alternateBounds"/>
                    </mxGeometry>
                </mxCell>
                <mxCell id="50" value="&amp;nbsp;See specific user data, update user profile, delete user profile" style="connectable=0;recursiveResize=0;strokeColor=inherit;fillColor=none;align=center;whiteSpace=wrap;html=1;" vertex="1" parent="47">
                    <mxGeometry x="446" width="224" height="118" as="geometry">
                        <mxRectangle width="224" height="118" as="alternateBounds"/>
                    </mxGeometry>
                </mxCell>
                <mxCell id="51" style="shape=tableRow;horizontal=0;startSize=0;swimlaneHead=0;swimlaneBody=0;top=0;left=0;bottom=0;right=0;dropTarget=0;collapsible=0;recursiveResize=0;expand=0;fontStyle=0;fillColor=none;strokeColor=inherit;" vertex="1" parent="42">
                    <mxGeometry y="239" width="670" height="121" as="geometry"/>
                </mxCell>
                <mxCell id="52" value="" style="connectable=0;recursiveResize=0;strokeColor=inherit;fillColor=none;align=center;whiteSpace=wrap;html=1;" vertex="1" parent="51">
                    <mxGeometry width="224" height="121" as="geometry">
                        <mxRectangle width="224" height="121" as="alternateBounds"/>
                    </mxGeometry>
                </mxCell>
                <mxCell id="53" value="" style="connectable=0;recursiveResize=0;strokeColor=inherit;fillColor=none;align=center;whiteSpace=wrap;html=1;" vertex="1" parent="51">
                    <mxGeometry x="224" width="222" height="121" as="geometry">
                        <mxRectangle width="222" height="121" as="alternateBounds"/>
                    </mxGeometry>
                </mxCell>
                <mxCell id="54" value="" style="connectable=0;recursiveResize=0;strokeColor=inherit;fillColor=none;align=center;whiteSpace=wrap;html=1;" vertex="1" parent="51">
                    <mxGeometry x="446" width="224" height="121" as="geometry">
                        <mxRectangle width="224" height="121" as="alternateBounds"/>
                    </mxGeometry>
                </mxCell>
            </root>
        </mxGraphModel>
    </diagram>
</mxfile>